<svg version="1.1" id="Layer_1" xmlns="http://www.w3.org/2000/svg" xmlns:xlink="http://www.w3.org/1999/xlink" x="0px" y="0px"
	 width="100%" viewBox="0 0 500 500" enable-background="new 0 0 500 500" xml:space="preserve">
<path fill="#000000" opacity="1.000000" stroke="none" 
	d="
M222.000000,501.000000 
	C148.000015,501.000000 74.500038,501.000000 1.000039,501.000000 
	C1.000026,334.333405 1.000026,167.666779 1.000013,1.000129 
	C167.666565,1.000086 334.333130,1.000086 500.999756,1.000043 
	C500.999847,167.666534 500.999847,334.333069 500.999939,500.999817 
	C408.166656,501.000000 315.333344,501.000000 222.000000,501.000000 
M308.871368,295.898743 
	C308.871368,295.898743 308.938965,295.605042 309.294678,295.556335 
	C309.532074,295.418793 309.629181,295.214539 309.882751,294.876770 
	C309.882751,294.876770 309.945984,294.579224 310.299896,294.538727 
	C310.538086,294.413177 310.648285,294.216064 310.898865,293.900146 
	C310.898865,293.900146 310.944153,293.631378 311.294098,293.561401 
	C311.522156,293.419861 311.620392,293.215790 311.881439,292.873749 
	C311.881439,292.873749 311.938293,292.576965 312.281494,292.512390 
	C312.505402,292.383514 312.616821,292.189880 312.861603,291.973175 
	C312.861603,291.973175 312.944397,291.738007 313.370911,291.742401 
	C313.693878,291.597778 313.791046,291.360596 314.115051,290.524261 
	C314.880219,289.419281 315.645386,288.314270 316.909271,286.801331 
	C319.534760,282.179688 322.160248,277.558075 324.974213,272.895721 
	C324.974213,272.895721 324.912262,272.713104 325.459320,272.239410 
	C325.798920,270.667694 325.888977,268.987030 326.519684,267.542358 
	C329.948578,259.687744 331.331085,251.551300 330.580353,242.202103 
	C330.443420,239.682556 330.306488,237.163010 330.573700,234.102448 
	C330.379303,233.095749 330.184875,232.089035 329.931396,230.520950 
	C329.863007,230.345657 329.794586,230.170364 329.878418,229.181076 
	C327.897705,221.129440 325.917023,213.077789 323.928558,204.258759 
	C322.554901,200.838043 321.181244,197.417313 319.859039,193.291107 
	C318.805206,191.092575 317.751404,188.894043 316.754700,186.288940 
	C316.754700,186.288940 316.420593,186.050339 316.212067,185.298843 
	C300.028412,150.698166 278.247040,119.874977 252.680756,90.390518 
	C252.082031,92.621902 251.694092,93.948265 251.371445,95.290321 
	C249.762695,101.981705 248.916550,108.968765 246.433899,115.316704 
	C238.933456,134.494873 226.033997,150.314987 213.508133,166.345383 
	C207.756165,173.706619 202.471848,181.433273 196.412094,189.301041 
	C195.945679,190.234146 195.479263,191.167252 194.633789,192.287949 
	C194.372894,192.463715 194.258041,192.708115 193.707397,193.348373 
	C193.485901,193.965332 193.264389,194.582275 192.678574,195.347305 
	C192.437561,195.516647 192.341537,195.746536 192.080780,196.107132 
	C192.080780,196.107132 192.046143,196.422791 191.518585,196.778976 
	C185.710052,207.333435 179.750076,217.826370 177.576340,230.217255 
	C177.247162,230.445770 177.203842,230.719498 177.251282,231.492233 
	C177.251282,231.492233 177.468536,231.935867 177.332458,232.472000 
	C177.402420,232.642593 177.472397,232.813187 177.249207,233.732574 
	C177.188721,234.265060 177.128235,234.797531 176.790634,235.390045 
	C176.607315,235.697449 176.658249,235.930923 176.672653,236.610611 
	C176.711823,237.181259 176.750992,237.751892 176.231354,239.065613 
	C176.434814,244.577164 176.638290,250.088730 176.645599,256.184387 
	C176.757004,256.778320 176.868408,257.372253 176.805222,258.571686 
	C178.956039,269.903198 182.770432,280.456360 190.988754,288.989227 
	C190.988754,288.989227 191.045563,288.995636 191.096466,289.583740 
	C191.753357,290.273773 192.410233,290.963776 193.369232,292.290375 
	C195.352112,294.187622 197.334991,296.084900 199.577194,298.546875 
	C201.389206,299.943054 203.201202,301.339233 205.293488,303.064240 
	C205.293488,303.064240 205.723297,303.108337 206.037781,303.717346 
	C207.591553,304.698975 209.145309,305.680603 211.218796,307.027283 
	C211.734909,307.382538 212.251022,307.737793 212.584808,308.176331 
	C212.584808,308.176331 212.710556,308.043396 213.386490,308.549347 
	C213.924515,308.703308 214.462524,308.857269 215.352905,309.607574 
	C221.958084,312.090576 228.563278,314.573578 235.769455,317.422638 
	C239.244415,318.462097 242.719360,319.501587 246.338531,320.687408 
	C246.338531,320.687408 246.502045,320.811859 246.404831,321.222565 
	C246.404831,321.222565 246.744843,321.468201 246.744843,321.468201 
	C246.744843,321.468201 247.063538,321.195404 247.709930,321.646484 
	C247.917892,321.807068 248.125839,321.967651 248.625854,322.826202 
	C248.836258,323.262054 249.088608,323.682953 249.249878,324.136292 
	C249.991837,326.221924 247.631165,330.360809 252.329437,329.809814 
	C256.489929,329.321869 253.999771,325.623596 254.570419,323.386566 
	C254.607651,323.240662 254.521347,323.063232 254.763504,322.426086 
	C254.838058,322.259888 254.912598,322.093719 255.551254,321.889160 
	C255.737350,321.859283 255.923447,321.829437 256.845398,321.867737 
	C259.918549,320.851135 262.991669,319.834534 266.804413,318.650360 
	C281.754395,314.305450 295.707611,308.105927 307.649658,296.839813 
	C307.798035,296.686981 307.946442,296.534119 308.373657,296.437561 
	C308.586578,296.340790 308.654205,296.181976 308.871368,295.898743 
M298.092621,333.518402 
	C292.164886,333.771698 286.237152,334.024994 279.507172,334.175079 
	C277.316925,334.256348 275.126709,334.337616 272.240631,334.209351 
	C271.100128,334.444244 269.959625,334.679108 267.905853,334.852081 
	C258.278473,334.867035 248.651077,334.881989 238.429291,334.725128 
	C237.615067,334.709167 236.800858,334.693207 235.281662,334.289825 
	C233.130157,334.326874 230.978668,334.363922 228.212738,334.182495 
	C226.905106,334.054443 225.597473,333.926392 223.928406,333.497589 
	C223.490692,333.580505 223.052963,333.663452 221.758942,333.560303 
	C216.185593,333.517609 210.612244,333.474915 204.176132,333.079254 
	C201.701553,333.196686 199.228058,333.351898 196.752136,333.422028 
	C193.627151,333.510559 190.450668,333.419708 188.192978,337.499420 
	C187.822968,341.896210 187.189743,346.289703 187.134872,350.690430 
	C186.998703,361.610870 189.067703,363.910583 200.658646,366.249298 
	C202.114059,366.469330 203.569458,366.689362 205.498856,367.280029 
	C209.340729,367.834015 213.182602,368.387970 217.543610,369.557404 
	C234.987885,370.018463 252.430420,370.671906 269.877441,370.830017 
	C275.533813,370.881287 281.201935,369.635132 287.682281,368.967163 
	C289.777100,368.603973 291.871918,368.240753 294.806763,367.881531 
	C298.554871,366.956329 302.302979,366.031128 306.815094,365.022614 
	C314.448120,363.185699 316.359802,360.883453 316.341461,353.565247 
	C316.336853,351.733398 316.353271,349.901489 316.356689,348.069611 
	C316.383148,333.963379 316.300842,333.878387 301.339386,333.107727 
	C300.890411,333.142700 300.441406,333.177673 299.450134,333.064972 
	C299.301147,333.178558 299.152161,333.292145 298.092621,333.518402 
z"/>
<path fill="#F8F4E8" opacity="1.000000" stroke="none" 
	d="
M196.975433,188.994217 
	C202.471848,181.433273 207.756165,173.706619 213.508133,166.345383 
	C226.033997,150.314987 238.933456,134.494873 246.433899,115.316704 
	C248.916550,108.968765 249.762695,101.981705 251.371445,95.290321 
	C251.694092,93.948265 252.082031,92.621902 252.680756,90.390518 
	C278.247040,119.874977 300.028412,150.698166 315.943268,185.622437 
	C314.627563,184.934814 313.523499,183.975647 312.545380,182.901810 
	C310.372467,180.516342 307.471832,180.944366 306.035614,183.914841 
	C301.704163,192.873505 295.887787,194.343460 287.702789,188.429123 
	C286.831146,190.244537 285.970917,192.036148 284.976624,194.107010 
	C279.665100,189.175568 288.188049,186.330460 286.190521,181.987991 
	C280.659363,185.793137 280.659363,185.793137 274.972198,182.701782 
	C268.404022,173.899567 262.050018,165.373489 254.911911,155.795273 
	C253.078964,162.426010 251.953735,167.550385 250.223297,172.461517 
	C248.475342,177.422394 246.127502,182.171936 243.832794,187.039413 
	C243.623138,187.064758 243.201706,187.093567 242.840897,187.096741 
	C240.354736,187.789215 239.155807,188.825226 240.981110,191.307709 
	C240.576813,192.059418 240.209335,192.510239 239.489838,192.979462 
	C237.476181,194.218933 235.814545,195.440002 234.152924,196.661057 
	C234.222305,196.207397 234.291687,195.753723 234.361084,195.300064 
	C228.206116,194.200272 222.087006,192.700668 215.883301,192.144516 
	C211.900543,191.787476 208.423508,192.031494 207.236160,187.053894 
	C206.877502,185.550323 205.083725,184.389099 203.990677,183.121353 
	C201.376740,185.309616 199.176071,187.151917 196.975433,188.994217 
M206.132050,180.058624 
	C206.555527,180.887070 206.979019,181.715530 207.402512,182.543991 
	C207.832596,181.950470 208.262695,181.356964 208.692764,180.763443 
	C207.915665,180.332474 207.138550,179.901505 206.132050,180.058624 
z"/>
<path fill="#E8D8BE" opacity="1.000000" stroke="none" 
	d="
M286.864685,368.982422 
	C281.201935,369.635132 275.533813,370.881287 269.877441,370.830017 
	C252.430420,370.671906 234.987885,370.018463 217.573578,368.983887 
	C219.960022,368.116272 222.316498,367.822205 226.323288,367.322205 
	C223.868362,364.501099 222.091797,362.783264 220.707382,360.792664 
	C218.637314,357.816223 216.290421,354.847961 215.081223,351.507050 
	C213.774399,347.896393 213.639999,343.861389 213.454529,340.003662 
	C219.264786,340.349152 224.614731,340.702454 230.020813,341.399506 
	C233.026321,344.608978 234.697861,348.086945 236.440887,351.847382 
	C238.245178,355.739990 242.040314,360.443176 245.809738,361.375671 
	C258.536255,364.524017 275.415741,357.386505 274.379883,341.014893 
	C275.488251,340.985962 276.227203,340.967438 277.382507,340.965576 
	C280.536224,340.663483 283.273621,340.344696 285.960999,340.387390 
	C285.557556,342.871155 285.183655,344.990326 284.854736,347.116425 
	C284.132050,351.787659 285.344238,356.603119 282.118225,361.077148 
	C278.339813,366.317230 279.914246,368.513184 286.864685,368.982422 
z"/>
<path fill="#F0E7D5" opacity="1.000000" stroke="none" 
	d="
M177.542358,232.983765 
	C177.472397,232.813187 177.402420,232.642593 177.523804,232.102921 
	C177.866074,231.555511 177.902542,231.356262 177.901993,230.865601 
	C177.989212,230.407822 177.999008,230.220505 178.008820,230.033188 
	C179.750076,217.826370 185.710052,207.333435 191.796432,196.943115 
	C194.680176,204.026581 199.582642,209.230164 205.042252,213.900574 
	C206.359055,215.027054 209.385483,216.168091 210.200317,215.517395 
	C213.603363,212.799942 215.546936,216.338028 218.031586,216.502213 
	C220.293732,216.651688 222.720444,214.310699 225.026566,213.401260 
	C223.964432,215.448792 222.950378,217.162521 221.647583,219.060547 
	C218.871811,223.147949 216.384781,227.051102 213.670929,231.119141 
	C212.986633,231.863770 212.529144,232.443542 211.821915,233.166931 
	C211.422913,233.657196 211.273651,234.003860 211.113892,234.652863 
	C210.751511,235.643951 210.399612,236.332703 209.801941,237.164978 
	C209.411896,237.652542 209.267609,237.996567 209.123962,238.621918 
	C209.024399,239.263885 208.924179,239.624512 208.475098,240.042358 
	C204.228806,241.423294 203.515686,244.403152 204.009338,248.342682 
	C204.003189,249.115219 203.998978,249.556686 203.584656,249.995575 
	C198.387375,250.266434 199.184631,246.825714 198.930862,243.876343 
	C198.821609,242.606522 197.929825,241.404037 197.393539,240.170959 
	C196.543167,240.958878 195.819473,242.085556 194.814926,242.461136 
	C192.969757,243.151016 190.794632,244.086884 189.055527,243.671249 
	C186.354340,243.025665 183.467743,241.803207 181.472610,239.950089 
	C179.611389,238.221375 178.810165,235.351395 177.542358,232.983765 
z"/>
<path fill="#F5EDDF" opacity="1.000000" stroke="none" 
	d="
M275.186401,182.977936 
	C280.659363,185.793137 280.659363,185.793137 286.190521,181.987991 
	C288.188049,186.330460 279.665100,189.175568 284.976624,194.107010 
	C285.970917,192.036148 286.831146,190.244537 287.702789,188.429123 
	C295.887787,194.343460 301.704163,192.873505 306.035614,183.914841 
	C307.471832,180.944366 310.372467,180.516342 312.545380,182.901810 
	C313.523499,183.975647 314.627563,184.934814 316.047546,185.998169 
	C316.420593,186.050339 316.754700,186.288940 316.394531,186.670135 
	C314.205902,191.043076 317.805817,192.085724 319.807587,193.996597 
	C321.181244,197.417313 322.554901,200.838043 323.665039,204.857117 
	C321.099762,209.560593 317.219269,210.355484 313.219482,209.446625 
	C310.011597,208.717682 307.682648,209.238785 305.795715,211.741898 
	C304.365784,213.638718 303.126251,215.679077 301.860779,217.567947 
	C299.964783,216.932617 297.990997,216.271225 295.553192,215.454346 
	C294.441193,214.310226 292.821533,212.643753 291.000519,210.697815 
	C290.220184,209.219177 289.641205,208.020004 289.043945,206.498779 
	C288.640076,205.463470 288.254486,204.750183 287.628540,203.806396 
	C285.600891,200.711411 283.813660,197.846909 281.983643,194.635284 
	C279.624878,190.859222 277.308838,187.430298 275.039246,183.745148 
	C275.119263,183.318588 275.152832,183.148270 275.186401,182.977936 
z"/>
<path fill="#F5EDDF" opacity="1.000000" stroke="none" 
	d="
M225.074631,213.067474 
	C222.720444,214.310699 220.293732,216.651688 218.031586,216.502213 
	C215.546936,216.338028 213.603363,212.799942 210.200317,215.517395 
	C209.385483,216.168091 206.359055,215.027054 205.042252,213.900574 
	C199.582642,209.230164 194.680176,204.026581 192.060211,196.765015 
	C192.046143,196.422791 192.080780,196.107132 192.387741,195.970978 
	C192.879364,195.660538 192.995422,195.448685 193.042877,195.199234 
	C193.264389,194.582275 193.485901,193.965332 194.135788,193.045319 
	C194.736450,192.544189 194.886002,192.330215 195.012833,192.100357 
	C195.479263,191.167252 195.945679,190.234146 196.693756,189.147614 
	C199.176071,187.151917 201.376740,185.309616 203.990677,183.121353 
	C205.083725,184.389099 206.877502,185.550323 207.236160,187.053894 
	C208.423508,192.031494 211.900543,191.787476 215.883301,192.144516 
	C222.087006,192.700668 228.206116,194.200272 234.361084,195.300064 
	C234.291687,195.753723 234.222305,196.207397 234.152924,196.661057 
	C235.814545,195.440002 237.476181,194.218933 239.403549,193.289368 
	C239.113297,194.720673 238.557297,195.860474 237.723419,197.184204 
	C234.376968,201.587234 231.308395,205.806335 228.043945,210.221466 
	C227.356247,210.650375 226.864395,210.883255 226.059845,211.217911 
	C225.514786,211.898254 225.282394,212.476822 225.046188,213.051941 
	C225.042389,213.048492 225.074631,213.067490 225.074631,213.067474 
z"/>
<path fill="#E2D2B7" opacity="1.000000" stroke="none" 
	d="
M308.094879,296.381226 
	C307.946442,296.534119 307.798035,296.686981 307.022217,296.750397 
	C305.414337,295.810547 304.564423,294.589783 303.425659,294.188354 
	C301.201019,293.404144 298.814972,293.077759 296.495758,292.561829 
	C297.026093,290.179932 297.537354,287.793579 298.095123,285.418121 
	C298.359650,284.291656 298.713043,283.186066 299.107635,281.710327 
	C299.646606,278.598511 300.104095,275.847382 300.719910,272.764893 
	C301.601807,267.287720 302.325409,262.141846 303.396698,257.074799 
	C305.664032,262.405701 308.996521,263.835114 314.463623,262.070129 
	C318.852509,260.653259 323.976166,260.964844 325.758179,254.535736 
	C326.961639,257.030090 328.151154,259.855377 327.258606,260.897705 
	C324.111572,264.572723 325.375061,268.742493 324.912262,272.713104 
	C324.912262,272.713104 324.974213,272.895721 324.559998,273.014343 
	C321.269684,277.304688 318.372925,281.462677 315.575073,285.686218 
	C315.426239,285.910828 316.112823,286.688873 316.410522,287.209290 
	C315.645386,288.314270 314.880219,289.419281 313.724548,290.842224 
	C313.137299,291.307678 313.007416,291.500275 312.944397,291.738007 
	C312.944397,291.738007 312.861603,291.973175 312.595947,292.025085 
	C312.150726,292.205261 312.020050,292.371918 311.938293,292.576965 
	C311.938293,292.576965 311.881439,292.873749 311.594666,292.990295 
	C311.133484,293.244812 311.012238,293.419678 310.944153,293.631378 
	C310.944153,293.631378 310.898865,293.900146 310.619934,293.991913 
	C310.158722,294.208496 310.027039,294.373688 309.945984,294.579224 
	C309.945984,294.579224 309.882751,294.876770 309.594849,294.985901 
	C309.133087,295.228088 309.010437,295.398102 308.938965,295.605042 
	C308.938965,295.605042 308.871368,295.898743 308.618164,295.966797 
	C308.364990,296.034821 308.094879,296.381226 308.094879,296.381226 
M306.303131,292.227417 
	C306.805603,291.565857 307.308075,290.904297 307.810516,290.242737 
	C307.294739,290.012421 306.778992,289.782104 306.263214,289.551788 
	C306.157837,290.272400 306.052490,290.993011 306.303131,292.227417 
z"/>
<path fill="#F0E7D5" opacity="1.000000" stroke="none" 
	d="
M291.201843,210.977280 
	C292.821533,212.643753 294.441193,214.310226 295.553192,215.454346 
	C297.990997,216.271225 299.964783,216.932617 301.860779,217.567947 
	C303.126251,215.679077 304.365784,213.638718 305.795715,211.741898 
	C307.682648,209.238785 310.011597,208.717682 313.219482,209.446625 
	C317.219269,210.355484 321.099762,209.560593 323.668945,205.240814 
	C325.917023,213.077789 327.897705,221.129440 329.417419,229.571198 
	C321.900146,228.345627 315.476868,230.675385 308.960327,232.918701 
	C306.478973,233.772903 303.667694,233.668655 300.960938,233.697296 
	C300.336884,232.916183 299.758698,232.439026 299.033539,231.678848 
	C298.553833,230.615128 298.221069,229.834427 297.881470,228.687637 
	C296.892365,225.885239 295.910126,223.448929 294.911438,220.648758 
	C293.663940,217.182373 292.432892,214.079834 291.201843,210.977280 
z"/>
<path fill="#9F6F39" opacity="1.000000" stroke="none" 
	d="
M266.064789,318.817932 
	C262.991669,319.834534 259.918549,320.851135 256.428558,321.639343 
	C256.011719,321.410950 255.879425,321.032990 256.100677,320.928467 
	C256.574402,320.586182 256.702515,320.293915 256.793335,319.952423 
	C256.880432,319.957672 256.939240,319.794647 257.146301,319.764038 
	C257.624939,319.570221 257.739258,319.331604 257.929199,318.810547 
	C258.829773,317.848083 259.497437,317.092743 260.458954,316.220123 
	C261.197357,315.424347 261.641937,314.745850 262.060242,314.032013 
	C262.033997,313.996704 262.052155,314.082794 262.300354,313.994873 
	C262.722137,313.613281 262.895721,313.319672 263.323120,312.851410 
	C264.090332,311.798676 264.603668,310.920563 265.392395,309.862549 
	C266.293457,308.522797 266.919128,307.362976 267.743866,305.935974 
	C269.682831,300.430969 271.422699,295.193176 273.324951,289.650757 
	C273.584534,288.212280 273.681763,287.078400 273.895203,285.521179 
	C274.084625,283.044739 274.157776,280.991669 274.602051,278.951782 
	C282.776123,278.435089 290.099548,279.545227 296.055542,285.493713 
	C291.539093,295.116760 285.449585,303.103485 277.371368,309.545593 
	C273.560974,312.584259 269.831116,315.723969 266.064789,318.817932 
z"/>
<path fill="#E2D2B7" opacity="1.000000" stroke="none" 
	d="
M205.723297,303.108337 
	C205.723297,303.108337 205.293488,303.064240 205.170105,302.564850 
	C205.518967,300.938965 205.991196,299.812500 206.925735,297.583191 
	C203.992554,297.737000 201.655212,297.859589 199.317871,297.982147 
	C197.334991,296.084900 195.352112,294.187622 193.180145,291.653320 
	C192.342545,290.342743 191.694061,289.669189 191.045563,288.995636 
	C191.045563,288.995636 190.988754,288.989227 190.982590,288.588196 
	C189.173752,285.145721 187.216583,282.181091 185.646530,279.023926 
	C185.041534,277.807404 184.705338,275.704956 185.355072,274.819092 
	C186.067017,273.848389 188.447327,273.030334 189.425247,273.513275 
	C193.425797,275.489014 197.168533,277.986786 201.529266,280.606567 
	C204.570770,274.335632 202.310516,267.504944 202.994293,260.623413 
	C203.393494,259.198822 203.790070,258.143433 204.191116,257.527496 
	C204.240936,260.328766 204.286285,262.690552 204.298386,265.453156 
	C205.016922,276.195770 207.541962,286.001251 213.039886,295.288208 
	C215.051071,299.916779 217.098892,304.157532 215.000549,309.011230 
	C214.462524,308.857269 213.924515,308.703308 213.056076,308.311768 
	C212.725662,308.074158 212.767136,308.093018 212.767120,308.093018 
	C212.251022,307.737793 211.734909,307.382538 211.034058,306.434448 
	C210.748291,304.668732 210.647247,303.495911 210.543198,302.287933 
	C208.617462,302.615723 207.170380,302.862030 205.723297,303.108337 
z"/>
<path fill="#E8D8BE" opacity="1.000000" stroke="none" 
	d="
M202.991653,260.992615 
	C202.310516,267.504944 204.570770,274.335632 201.529266,280.606567 
	C197.168533,277.986786 193.425797,275.489014 189.425247,273.513275 
	C188.447327,273.030334 186.067017,273.848389 185.355072,274.819092 
	C184.705338,275.704956 185.041534,277.807404 185.646530,279.023926 
	C187.216583,282.181091 189.173752,285.145721 190.994781,288.562378 
	C182.770432,280.456360 178.956039,269.903198 177.322510,258.278412 
	C182.669296,256.119324 184.189453,261.123718 187.994324,263.626923 
	C188.576279,255.242218 196.273544,260.548737 198.491638,256.807465 
	C200.172104,258.370361 201.581879,259.681488 202.991653,260.992615 
z"/>
<path fill="#EBDFCB" opacity="1.000000" stroke="none" 
	d="
M202.994293,260.623413 
	C201.581879,259.681488 200.172104,258.370361 198.491638,256.807465 
	C196.273544,260.548737 188.576279,255.242218 187.994324,263.626923 
	C184.189453,261.123718 182.669296,256.119324 177.409805,257.975647 
	C176.868408,257.372253 176.757004,256.778320 176.790863,255.379608 
	C176.887466,249.157410 176.838821,243.739975 176.790161,238.322540 
	C176.750992,237.751892 176.711823,237.181259 176.856781,236.163528 
	C177.040924,235.716446 177.067749,235.330017 177.067749,235.330017 
	C177.128235,234.797531 177.188721,234.265060 177.395782,233.358170 
	C178.810165,235.351395 179.611389,238.221375 181.472610,239.950089 
	C183.467743,241.803207 186.354340,243.025665 189.055527,243.671249 
	C190.794632,244.086884 192.969757,243.151016 194.814926,242.461136 
	C195.819473,242.085556 196.543167,240.958878 197.393539,240.170959 
	C197.929825,241.404037 198.821609,242.606522 198.930862,243.876343 
	C199.184631,246.825714 198.387375,250.266434 203.707504,250.213715 
	C204.509293,250.625397 204.778107,250.816360 205.041443,251.423386 
	C205.013794,253.224792 204.991608,254.610153 204.864151,256.196106 
	C204.628036,256.676727 204.437286,256.907166 204.186646,257.088013 
	C203.790070,258.143433 203.393494,259.198822 202.994293,260.623413 
z"/>
<path fill="#D9C7A7" opacity="1.000000" stroke="none" 
	d="
M306.051086,365.105957 
	C302.302979,366.031128 298.554871,366.956329 294.141937,367.631897 
	C292.784698,366.027802 291.365692,364.574738 291.533630,363.337006 
	C292.078979,359.317780 292.867889,355.259827 294.199219,351.438385 
	C295.653442,347.264099 291.345306,342.882416 295.268951,338.695618 
	C298.035553,338.277435 300.514587,338.136261 303.356262,337.943451 
	C305.558014,337.346619 307.397156,336.801453 309.312744,336.233582 
	C309.312744,337.958801 309.070251,339.291931 309.352570,340.502686 
	C311.023315,347.667053 309.952576,354.241272 305.898926,360.464325 
	C305.206451,361.527435 305.963593,363.534790 306.051086,365.105957 
z"/>
<path fill="#E8D8BE" opacity="1.000000" stroke="none" 
	d="
M325.185791,272.476257 
	C325.375061,268.742493 324.111572,264.572723 327.258606,260.897705 
	C328.151154,259.855377 326.961639,257.030090 325.758179,254.535736 
	C323.976166,260.964844 318.852509,260.653259 314.463623,262.070129 
	C308.996521,263.835114 305.664032,262.405701 303.347961,256.651062 
	C302.827209,254.457016 302.702850,252.765503 302.666290,250.734833 
	C302.665924,249.257629 302.577728,248.119553 302.791016,247.090332 
	C306.083221,251.659882 307.194427,251.557159 311.515350,248.090714 
	C316.947540,243.732758 322.825623,240.190308 330.300446,243.025452 
	C331.331085,251.551300 329.948578,259.687744 326.519684,267.542358 
	C325.888977,268.987030 325.798920,270.667694 325.185791,272.476257 
z"/>
<path fill="#EBDFCB" opacity="1.000000" stroke="none" 
	d="
M330.440399,242.613770 
	C322.825623,240.190308 316.947540,243.732758 311.515350,248.090714 
	C307.194427,251.557159 306.083221,251.659882 302.676636,246.724487 
	C302.225433,245.487747 302.190063,244.725677 302.365967,243.756149 
	C302.151489,242.690628 301.725708,241.832581 301.203430,240.651993 
	C301.083038,239.882050 301.059174,239.434631 301.281952,238.766296 
	C301.354645,237.030640 301.180725,235.515930 301.006775,234.001221 
	C303.667694,233.668655 306.478973,233.772903 308.960327,232.918701 
	C315.476868,230.675385 321.900146,228.345627 329.341309,229.978180 
	C329.794586,230.170364 329.863007,230.345657 329.949341,231.245850 
	C330.034729,232.861649 330.102142,233.752548 330.169556,234.643463 
	C330.306488,237.163010 330.443420,239.682556 330.440399,242.613770 
z"/>
<path fill="#E2D2B7" opacity="1.000000" stroke="none" 
	d="
M212.994186,340.011475 
	C213.639999,343.861389 213.774399,347.896393 215.081223,351.507050 
	C216.290421,354.847961 218.637314,357.816223 220.707382,360.792664 
	C222.091797,362.783264 223.868362,364.501099 226.323288,367.322205 
	C222.316498,367.822205 219.960022,368.116272 217.313995,368.676147 
	C213.182602,368.387970 209.340729,367.834015 205.309662,366.737122 
	C206.774063,363.553833 208.058517,361.036133 205.036621,358.295776 
	C204.240662,357.573914 204.292099,355.888733 204.011292,354.633209 
	C203.262344,351.284515 202.495193,347.938568 201.832687,344.572357 
	C201.441895,342.586761 201.236404,340.564728 200.833328,337.765594 
	C203.555649,338.311768 205.270798,338.655884 207.367096,339.037567 
	C209.496887,339.387268 211.245544,339.699371 212.994186,340.011475 
z"/>
<path fill="#D9C7A7" opacity="1.000000" stroke="none" 
	d="
M266.434601,318.734131 
	C269.831116,315.723969 273.560974,312.584259 277.371368,309.545593 
	C285.449585,303.103485 291.539093,295.116760 296.288330,285.266449 
	C297.392395,283.817688 298.209290,282.944336 299.026184,282.071014 
	C298.713043,283.186066 298.359650,284.291656 298.095123,285.418121 
	C297.537354,287.793579 297.026093,290.179932 296.495758,292.561829 
	C298.814972,293.077759 301.201019,293.404144 303.425659,294.188354 
	C304.564423,294.589783 305.414337,295.810547 306.716675,296.844055 
	C295.707611,308.105927 281.754395,314.305450 266.434601,318.734131 
z"/>
<path fill="#F8F4E8" opacity="1.000000" stroke="none" 
	d="
M276.966125,340.948853 
	C276.227203,340.967438 275.488251,340.985962 273.979919,341.003845 
	C272.144592,341.011200 271.078644,341.019165 269.577454,341.017853 
	C259.426270,341.343445 249.710342,341.678284 239.567932,342.011292 
	C236.428833,341.671722 233.716248,341.334015 230.993835,340.607788 
	C230.265060,338.279785 229.546112,336.340393 228.827164,334.400970 
	C230.978668,334.363922 233.130157,334.326874 235.730103,334.756531 
	C237.126923,335.114471 238.075302,335.005707 239.023697,334.896942 
	C248.651077,334.881989 258.278473,334.867035 268.717407,334.939301 
	C270.664825,334.823975 271.800629,334.621429 272.936462,334.418884 
	C275.126709,334.337616 277.316925,334.256348 279.806213,334.611908 
	C279.058868,337.015442 278.012512,338.982147 276.966125,340.948853 
z"/>
<path fill="#9F6F39" opacity="1.000000" stroke="none" 
	d="
M246.194321,320.541046 
	C242.719360,319.501587 239.244415,318.462097 235.381256,316.901184 
	C233.907623,315.398315 232.764191,314.473328 231.746384,313.426208 
	C225.804413,307.313080 219.891876,301.171387 214.195129,294.776184 
	C217.077484,294.578064 220.101746,293.857697 222.305847,294.889435 
	C225.732651,296.493500 227.774780,295.566223 229.944016,293.397644 
	C230.757599,295.479218 231.441803,297.222229 232.126801,299.326294 
	C234.841949,304.117462 237.556290,308.547638 240.316910,313.254883 
	C240.908295,314.026886 241.453384,314.521820 242.133606,315.226929 
	C242.268753,315.437134 242.722595,315.646515 242.799866,315.945984 
	C243.982849,317.677338 245.088593,319.109192 246.194321,320.541046 
z"/>
<path fill="#E2D2B7" opacity="1.000000" stroke="none" 
	d="
M294.981384,338.972595 
	C291.345306,342.882416 295.653442,347.264099 294.199219,351.438385 
	C292.867889,355.259827 292.078979,359.317780 291.533630,363.337006 
	C291.365692,364.574738 292.784698,366.027802 293.721924,367.629913 
	C291.871918,368.240753 289.777100,368.603973 287.273499,368.974792 
	C279.914246,368.513184 278.339813,366.317230 282.118225,361.077148 
	C285.344238,356.603119 284.132050,351.787659 284.854736,347.116425 
	C285.183655,344.990326 285.557556,342.871155 286.367096,340.368408 
	C289.542572,339.649536 292.261963,339.311066 294.981384,338.972595 
z"/>
<path fill="#D9C7A7" opacity="1.000000" stroke="none" 
	d="
M206.985962,339.000000 
	C205.270798,338.655884 203.555649,338.311768 200.833328,337.765594 
	C201.236404,340.564728 201.441895,342.586761 201.832687,344.572357 
	C202.495193,347.938568 203.262344,351.284515 204.011292,354.633209 
	C204.292099,355.888733 204.240662,357.573914 205.036621,358.295776 
	C208.058517,361.036133 206.774063,363.553833 205.072662,366.551819 
	C203.569458,366.689362 202.114059,366.469330 200.513901,365.759949 
	C201.815369,363.623535 202.621170,362.298553 200.259659,360.407990 
	C198.736130,359.188293 197.605713,357.032349 197.086563,355.085938 
	C195.467010,349.013947 194.222137,342.841980 192.799973,336.567474 
	C191.789780,336.670563 190.343842,336.818085 188.897888,336.965607 
	C190.450668,333.419708 193.627151,333.510559 196.752136,333.422028 
	C199.228058,333.351898 201.701553,333.196686 204.622406,333.603516 
	C205.707779,335.751862 206.346878,337.375916 206.985962,339.000000 
z"/>
<path fill="#CCB997" opacity="1.000000" stroke="none" 
	d="
M306.433075,365.064270 
	C305.963593,363.534790 305.206451,361.527435 305.898926,360.464325 
	C309.952576,354.241272 311.023315,347.667053 309.352570,340.502686 
	C309.070251,339.291931 309.312744,337.958801 309.312744,336.233582 
	C307.397156,336.801453 305.558014,337.346619 303.380981,337.582092 
	C302.698669,335.918365 302.354248,334.564392 302.009827,333.210388 
	C316.300842,333.878387 316.383148,333.963379 316.356689,348.069611 
	C316.353271,349.901489 316.336853,351.733398 316.341461,353.565247 
	C316.359802,360.883453 314.448120,363.185699 306.433075,365.064270 
z"/>
<path fill="#CCB997" opacity="1.000000" stroke="none" 
	d="
M188.545441,337.232513 
	C190.343842,336.818085 191.789780,336.670563 192.799973,336.567474 
	C194.222137,342.841980 195.467010,349.013947 197.086563,355.085938 
	C197.605713,357.032349 198.736130,359.188293 200.259659,360.407990 
	C202.621170,362.298553 201.815369,363.623535 200.200089,365.560730 
	C189.067703,363.910583 186.998703,361.610870 187.134872,350.690430 
	C187.189743,346.289703 187.822968,341.896210 188.545441,337.232513 
z"/>
<path fill="#F0E7D5" opacity="1.000000" stroke="none" 
	d="
M207.367096,339.037567 
	C206.346878,337.375916 205.707779,335.751862 205.053787,333.779968 
	C210.612244,333.474915 216.185593,333.517609 222.603088,333.754211 
	C223.728119,333.898224 224.008972,333.848297 224.289841,333.798340 
	C225.597473,333.926392 226.905106,334.054443 228.519958,334.291748 
	C229.546112,336.340393 230.265060,338.279785 230.733841,340.618713 
	C230.310669,341.030762 230.137665,341.043274 229.964661,341.055756 
	C224.614731,340.702454 219.264786,340.349152 213.454529,340.003662 
	C211.245544,339.699371 209.496887,339.387268 207.367096,339.037567 
z"/>
<path fill="#F0E7D5" opacity="1.000000" stroke="none" 
	d="
M301.674622,333.159058 
	C302.354248,334.564392 302.698669,335.918365 303.018372,337.633728 
	C300.514587,338.136261 298.035553,338.277435 295.268951,338.695618 
	C292.261963,339.311066 289.542572,339.649536 286.417053,340.006958 
	C283.273621,340.344696 280.536224,340.663483 277.382507,340.965576 
	C278.012512,338.982147 279.058868,337.015442 280.207336,334.663513 
	C286.237152,334.024994 292.164886,333.771698 298.645935,333.604309 
	C299.463623,333.531006 299.728027,333.371826 299.992432,333.212646 
	C300.441406,333.177673 300.890411,333.142700 301.674622,333.159058 
z"/>
<path fill="#D9C7A7" opacity="1.000000" stroke="none" 
	d="
M213.969421,295.039307 
	C219.891876,301.171387 225.804413,307.313080 231.746384,313.426208 
	C232.764191,314.473328 233.907623,315.398315 235.080750,316.718170 
	C228.563278,314.573578 221.958084,312.090576 215.176727,309.309387 
	C217.098892,304.157532 215.051071,299.916779 213.268616,295.326904 
	C213.508698,294.981537 213.969421,295.039307 213.969421,295.039307 
z"/>
<path fill="#E8D8BE" opacity="1.000000" stroke="none" 
	d="
M246.266418,320.614227 
	C245.088593,319.109192 243.982849,317.677338 242.987061,315.606995 
	C244.056671,315.016968 245.122650,314.810242 245.957565,315.158112 
	C249.577255,316.666168 253.129471,318.336121 256.706238,319.947174 
	C256.702515,320.293915 256.574402,320.586182 255.918945,321.040527 
	C255.290405,321.441742 255.114120,321.665222 254.987122,321.927582 
	C254.912598,322.093719 254.838058,322.259888 254.269867,322.684875 
	C251.962082,322.671875 250.147934,322.400055 248.333786,322.128235 
	C248.125839,321.967651 247.917892,321.807068 247.390350,321.261353 
	C246.903549,320.656830 246.713989,320.635376 246.502045,320.811859 
	C246.502045,320.811859 246.338531,320.687408 246.266418,320.614227 
z"/>
<path fill="#B88B4E" opacity="1.000000" stroke="none" 
	d="
M248.479828,322.477203 
	C250.147934,322.400055 251.962082,322.671875 254.134354,322.922089 
	C254.521347,323.063232 254.607651,323.240662 254.570419,323.386566 
	C253.999771,325.623596 256.489929,329.321869 252.329437,329.809814 
	C247.631165,330.360809 249.991837,326.221924 249.249878,324.136292 
	C249.088608,323.682953 248.836258,323.262054 248.479828,322.477203 
z"/>
<path fill="#E8D8BE" opacity="1.000000" stroke="none" 
	d="
M316.659912,287.005310 
	C316.112823,286.688873 315.426239,285.910828 315.575073,285.686218 
	C318.372925,281.462677 321.269684,277.304688 324.465759,273.034729 
	C322.160248,277.558075 319.534760,282.179688 316.659912,287.005310 
z"/>
<path fill="#D9C7A7" opacity="1.000000" stroke="none" 
	d="
M199.447540,298.264526 
	C201.655212,297.859589 203.992554,297.737000 206.925735,297.583191 
	C205.991196,299.812500 205.518967,300.938965 205.029968,302.400452 
	C203.201202,301.339233 201.389206,299.943054 199.447540,298.264526 
z"/>
<path fill="#F8F4E8" opacity="1.000000" stroke="none" 
	d="
M319.833313,193.643860 
	C317.805817,192.085724 314.205902,191.043076 316.365967,186.873413 
	C317.751404,188.894043 318.805206,191.092575 319.833313,193.643860 
z"/>
<path fill="#E8D8BE" opacity="1.000000" stroke="none" 
	d="
M176.510757,238.694077 
	C176.838821,243.739975 176.887466,249.157410 176.888947,255.087555 
	C176.638290,250.088730 176.434814,244.577164 176.510757,238.694077 
z"/>
<path fill="#D9C7A7" opacity="1.000000" stroke="none" 
	d="
M205.880539,303.412842 
	C207.170380,302.862030 208.617462,302.615723 210.543198,302.287933 
	C210.647247,303.495911 210.748291,304.668732 210.774200,306.251892 
	C209.145309,305.680603 207.591553,304.698975 205.880539,303.412842 
z"/>
<path fill="#F0E7D5" opacity="1.000000" stroke="none" 
	d="
M238.726501,334.811035 
	C238.075302,335.005707 237.126923,335.114471 236.082581,334.950256 
	C236.800858,334.693207 237.615067,334.709167 238.726501,334.811035 
z"/>
<path fill="#E8D8BE" opacity="1.000000" stroke="none" 
	d="
M191.071014,289.289673 
	C191.694061,289.669189 192.342545,290.342743 193.029083,291.335022 
	C192.410233,290.963776 191.753357,290.273773 191.071014,289.289673 
z"/>
<path fill="#F0E7D5" opacity="1.000000" stroke="none" 
	d="
M272.588562,334.314117 
	C271.800629,334.621429 270.664825,334.823975 269.174072,334.970276 
	C269.959625,334.679108 271.100128,334.444244 272.588562,334.314117 
z"/>
<path fill="#E8D8BE" opacity="1.000000" stroke="none" 
	d="
M330.371643,234.372955 
	C330.102142,233.752548 330.034729,232.861649 329.978882,231.526535 
	C330.184875,232.089035 330.379303,233.095749 330.371643,234.372955 
z"/>
<path fill="#D9C7A7" opacity="1.000000" stroke="none" 
	d="
M311.119141,293.596375 
	C311.012238,293.419678 311.133484,293.244812 311.448364,293.028015 
	C311.620392,293.215790 311.522156,293.419861 311.119141,293.596375 
z"/>
<path fill="#E8D8BE" opacity="1.000000" stroke="none" 
	d="
M176.929199,235.360031 
	C177.067749,235.330017 177.040924,235.716446 176.992172,235.903442 
	C176.658249,235.930923 176.607315,235.697449 176.929199,235.360031 
z"/>
<path fill="#F8F4E8" opacity="1.000000" stroke="none" 
	d="
M194.823303,192.194153 
	C194.886002,192.330215 194.736450,192.544189 194.426697,192.881714 
	C194.258041,192.708115 194.372894,192.463715 194.823303,192.194153 
z"/>
<path fill="#F0E7D5" opacity="1.000000" stroke="none" 
	d="
M192.860718,195.273270 
	C192.995422,195.448685 192.879364,195.660538 192.542603,195.935883 
	C192.341537,195.746536 192.437561,195.516647 192.860718,195.273270 
z"/>
<path fill="#E8D8BE" opacity="1.000000" stroke="none" 
	d="
M177.792572,230.125214 
	C177.999008,230.220505 177.989212,230.407822 177.808960,230.837860 
	C177.638519,231.080612 177.446365,231.038406 177.446365,231.038406 
	C177.203842,230.719498 177.247162,230.445770 177.792572,230.125214 
z"/>
<path fill="#EBDFCB" opacity="1.000000" stroke="none" 
	d="
M177.348816,231.265320 
	C177.446365,231.038406 177.638519,231.080612 177.731537,231.108353 
	C177.902542,231.356262 177.866074,231.555511 177.591843,231.834854 
	C177.468536,231.935867 177.251282,231.492233 177.348816,231.265320 
z"/>
<path fill="#D9C7A7" opacity="1.000000" stroke="none" 
	d="
M313.157654,291.740204 
	C313.007416,291.500275 313.137299,291.307678 313.498230,291.095520 
	C313.791046,291.360596 313.693878,291.597778 313.157654,291.740204 
z"/>
<path fill="#D9C7A7" opacity="1.000000" stroke="none" 
	d="
M312.109894,292.544678 
	C312.020050,292.371918 312.150726,292.205261 312.473053,292.004211 
	C312.616821,292.189880 312.505402,292.383514 312.109894,292.544678 
z"/>
<path fill="#D9C7A7" opacity="1.000000" stroke="none" 
	d="
M310.122925,294.558960 
	C310.027039,294.373688 310.158722,294.208496 310.485748,294.015503 
	C310.648285,294.216064 310.538086,294.413177 310.122925,294.558960 
z"/>
<path fill="#D9C7A7" opacity="1.000000" stroke="none" 
	d="
M309.116821,295.580688 
	C309.010437,295.398102 309.133087,295.228088 309.446472,295.019287 
	C309.629181,295.214539 309.532074,295.418793 309.116821,295.580688 
z"/>
<path fill="#CCB997" opacity="1.000000" stroke="none" 
	d="
M299.721283,333.138794 
	C299.728027,333.371826 299.463623,333.531006 299.101196,333.547943 
	C299.152161,333.292145 299.301147,333.178558 299.721283,333.138794 
z"/>
<path fill="#D9C7A7" opacity="1.000000" stroke="none" 
	d="
M224.109131,333.647980 
	C224.008972,333.848297 223.728119,333.898224 223.031250,333.847290 
	C223.052963,333.663452 223.490692,333.580505 224.109131,333.647980 
z"/>
<path fill="#D9C7A7" opacity="1.000000" stroke="none" 
	d="
M308.234253,296.409393 
	C308.094879,296.381226 308.364990,296.034821 308.470764,295.997986 
	C308.654205,296.181976 308.586578,296.340790 308.234253,296.409393 
z"/>
<path fill="#D9C7A7" opacity="1.000000" stroke="none" 
	d="
M212.675964,308.134674 
	C212.767136,308.093018 212.725662,308.074158 212.718109,308.058777 
	C212.710556,308.043396 212.584808,308.176331 212.675964,308.134674 
z"/>
<path fill="#EBDFCB" opacity="1.000000" stroke="none" 
	d="
M255.269196,321.908386 
	C255.114120,321.665222 255.290405,321.441742 255.697693,321.145081 
	C255.879425,321.032990 256.011719,321.410950 256.060638,321.605255 
	C255.923447,321.829437 255.737350,321.859283 255.269196,321.908386 
z"/>
<path fill="#9F6F39" opacity="1.000000" stroke="none" 
	d="
M246.453430,321.017212 
	C246.713989,320.635376 246.903549,320.656830 247.067139,321.035828 
	C247.063538,321.195404 246.744843,321.468201 246.744843,321.468201 
	C246.744843,321.468201 246.404831,321.222565 246.453430,321.017212 
z"/>
<path fill="#E3BE7D" opacity="1.000000" stroke="none" 
	d="
M238.001297,197.000290 
	C238.557297,195.860474 239.113297,194.720673 239.755585,193.270966 
	C240.209335,192.510239 240.576813,192.059418 241.240189,191.112122 
	C242.091293,189.441620 242.646500,188.267593 243.201721,187.093567 
	C243.201706,187.093567 243.623138,187.064758 244.165009,186.977905 
	C246.009537,186.077896 247.890930,184.251587 248.522827,184.612549 
	C253.372467,187.382904 257.266388,186.033417 261.115204,182.703522 
	C261.843750,182.073181 263.321869,181.974670 264.383911,182.125443 
	C267.937347,182.629852 271.459015,183.358566 274.992828,184.001373 
	C277.308838,187.430298 279.624878,190.859222 281.631714,194.793808 
	C280.076660,195.747635 278.858887,196.309738 277.580200,196.624420 
	C271.701965,198.071106 265.855530,199.753204 259.894714,200.708145 
	C257.342255,201.117081 254.393448,200.352844 251.884583,199.421600 
	C248.321518,198.099045 245.091690,195.902893 241.091888,198.285446 
	C240.519836,198.626190 239.053665,197.465881 238.001297,197.000290 
z"/>
<path fill="#E9C68A" opacity="1.000000" stroke="none" 
	d="
M275.039246,183.745148 
	C271.459015,183.358566 267.937347,182.629852 264.383911,182.125443 
	C263.321869,181.974670 261.843750,182.073181 261.115204,182.703522 
	C257.266388,186.033417 253.372467,187.382904 248.522827,184.612549 
	C247.890930,184.251587 246.009537,186.077896 244.374680,186.952576 
	C246.127502,182.171936 248.475342,177.422394 250.223297,172.461517 
	C251.953735,167.550385 253.078964,162.426010 254.911911,155.795273 
	C262.050018,165.373489 268.404022,173.899567 274.972198,182.701782 
	C275.152832,183.148270 275.119263,183.318588 275.039246,183.745148 
z"/>
<path fill="#F5EDDF" opacity="1.000000" stroke="none" 
	d="
M206.246750,179.764587 
	C207.138550,179.901505 207.915665,180.332474 208.692780,180.763458 
	C208.262695,181.356964 207.832596,181.950470 207.402496,182.543976 
	C206.979019,181.715530 206.555527,180.887070 206.246750,179.764587 
z"/>
<path fill="#F5EDDF" opacity="1.000000" stroke="none" 
	d="
M242.840912,187.096741 
	C242.646500,188.267593 242.091293,189.441620 241.277008,190.811234 
	C239.155807,188.825226 240.354736,187.789215 242.840912,187.096741 
z"/>
<path fill="#EBDFCB" opacity="1.000000" stroke="none" 
	d="
M230.020813,341.399506 
	C230.137665,341.043274 230.310669,341.030762 230.743668,341.007294 
	C233.716248,341.334015 236.428833,341.671722 239.645111,342.379395 
	C242.030075,343.499451 243.857376,344.466003 245.804611,344.951416 
	C249.146912,345.784637 252.654419,346.026733 255.928711,347.044281 
	C260.876160,348.581818 267.306793,346.028473 270.012726,341.027130 
	C271.078644,341.019165 272.144592,341.011200 273.610474,341.014221 
	C275.415741,357.386505 258.536255,364.524017 245.809738,361.375671 
	C242.040314,360.443176 238.245178,355.739990 236.440887,351.847382 
	C234.697861,348.086945 233.026321,344.608978 230.020813,341.399506 
z"/>
<path fill="#D6AE6D" opacity="1.000000" stroke="none" 
	d="
M291.000519,210.697815 
	C292.432892,214.079834 293.663940,217.182373 294.517944,220.644836 
	C291.291901,220.435074 288.232147,218.928314 285.642334,219.510880 
	C281.553009,220.430756 277.797546,222.796265 273.865936,224.467987 
	C270.496063,225.900879 267.155853,227.501373 263.649139,228.475845 
	C261.720673,229.011734 259.475616,228.408508 257.109375,228.377930 
	C255.922638,230.000183 254.999878,231.563370 254.045563,232.742279 
	C253.520966,229.217102 252.190842,227.700226 248.580338,228.507477 
	C246.893936,228.884521 244.774292,228.072571 243.042282,227.344513 
	C239.166458,225.715240 235.473770,223.646637 231.585831,222.050949 
	C228.461304,220.768600 225.159485,219.918289 221.936325,218.876266 
	C222.950378,217.162521 223.964432,215.448792 225.026566,213.401276 
	C225.074631,213.067490 225.042389,213.048492 225.307648,212.895264 
	C225.839447,212.200073 226.105988,211.658096 226.372528,211.116119 
	C226.864395,210.883255 227.356247,210.650375 228.406799,210.205795 
	C230.409897,209.755585 232.006073,208.998047 233.272385,209.368378 
	C238.761749,210.973801 244.095261,213.124954 249.605698,214.640442 
	C252.796890,215.518082 256.458862,216.520538 259.474823,215.755386 
	C263.683441,214.687622 267.663300,212.304840 271.419952,209.968491 
	C276.718445,206.673264 282.323303,206.055466 288.476501,206.842194 
	C288.671997,206.852005 289.062195,206.820816 289.062195,206.820816 
	C289.641205,208.020004 290.220184,209.219177 291.000519,210.697815 
z"/>
<path fill="#C69B5C" opacity="1.000000" stroke="none" 
	d="
M204.969437,255.995499 
	C204.991608,254.610153 205.013794,253.224792 205.280609,251.171692 
	C205.744232,249.362411 205.963242,248.220917 206.398590,246.812897 
	C207.351288,244.359314 208.087631,242.172241 208.823959,239.985153 
	C208.924179,239.624512 209.024399,239.263885 209.345642,238.452423 
	C209.727020,237.674881 209.887375,237.348160 210.047729,237.021454 
	C210.399612,236.332703 210.751511,235.643951 211.341873,234.485413 
	C211.744110,233.684830 211.907867,233.354065 212.071655,233.023315 
	C212.529144,232.443542 212.986633,231.863770 214.091675,231.135742 
	C221.114777,231.647690 227.574203,231.576126 232.570877,236.934952 
	C237.227402,241.928955 243.857147,245.766861 240.093765,254.305649 
	C239.976089,254.572662 240.125443,254.957367 240.082001,255.609619 
	C238.963974,257.935089 237.914276,259.938171 236.609680,262.138794 
	C235.286697,263.971741 234.218597,265.607117 232.982239,266.924927 
	C228.728638,262.436981 224.944458,257.903931 220.476837,254.193939 
	C215.588547,250.134659 207.227066,251.451294 204.969437,255.995499 
z"/>
<path fill="#CDA363" opacity="1.000000" stroke="none" 
	d="
M240.150330,255.287231 
	C240.125443,254.957367 239.976089,254.572662 240.093765,254.305649 
	C243.857147,245.766861 237.227402,241.928955 232.570877,236.934952 
	C227.574203,231.576126 221.114777,231.647690 214.318481,230.970871 
	C216.384781,227.051102 218.871811,223.147949 221.647583,219.060547 
	C225.159485,219.918289 228.461304,220.768600 231.585831,222.050949 
	C235.473770,223.646637 239.166458,225.715240 243.042282,227.344513 
	C244.774292,228.072571 246.893936,228.884521 248.580338,228.507477 
	C252.190842,227.700226 253.520966,229.217102 254.031342,233.095367 
	C252.718414,236.231232 251.388153,238.629730 249.810120,241.177612 
	C249.425934,241.680649 249.289520,242.034302 249.097504,242.720123 
	C246.078064,247.130600 243.114197,251.208908 240.150330,255.287231 
z"/>
<path fill="#EBDFCB" opacity="1.000000" stroke="none" 
	d="
M208.475113,240.042358 
	C208.087631,242.172241 207.351288,244.359314 206.109314,246.886169 
	C205.072891,247.487839 204.542084,247.749741 204.011261,248.011627 
	C203.515686,244.403152 204.228806,241.423294 208.475113,240.042358 
z"/>
<path fill="#E2D2B7" opacity="1.000000" stroke="none" 
	d="
M204.009323,248.342682 
	C204.542084,247.749741 205.072891,247.487839 205.892975,247.152679 
	C205.963242,248.220917 205.744232,249.362411 205.286087,250.755615 
	C204.778107,250.816360 204.509293,250.625397 204.117630,250.216309 
	C203.998978,249.556686 204.003189,249.115219 204.009323,248.342682 
z"/>
<path fill="#EBDFCB" opacity="1.000000" stroke="none" 
	d="
M209.801956,237.164978 
	C209.887375,237.348160 209.727020,237.674881 209.345001,238.171082 
	C209.267609,237.996567 209.411896,237.652542 209.801956,237.164978 
z"/>
<path fill="#EBDFCB" opacity="1.000000" stroke="none" 
	d="
M211.821899,233.166916 
	C211.907867,233.354065 211.744110,233.684830 211.352386,234.183044 
	C211.273651,234.003860 211.422913,233.657196 211.821899,233.166916 
z"/>
<path fill="#DDB675" opacity="1.000000" stroke="none" 
	d="
M288.281006,206.832367 
	C282.323303,206.055466 276.718445,206.673264 271.419952,209.968491 
	C267.663300,212.304840 263.683441,214.687622 259.474823,215.755386 
	C256.458862,216.520538 252.796890,215.518082 249.605698,214.640442 
	C244.095261,213.124954 238.761749,210.973801 233.272385,209.368378 
	C232.006073,208.998047 230.409897,209.755585 228.602661,210.009766 
	C231.308395,205.806335 234.376968,201.587234 237.723419,197.184204 
	C239.053665,197.465881 240.519836,198.626190 241.091888,198.285446 
	C245.091690,195.902893 248.321518,198.099045 251.884583,199.421600 
	C254.393448,200.352844 257.342255,201.117081 259.894714,200.708145 
	C265.855530,199.753204 271.701965,198.071106 277.580200,196.624420 
	C278.858887,196.309738 280.076660,195.747635 281.674438,195.140945 
	C283.813660,197.846909 285.600891,200.711411 287.659973,204.159515 
	C288.048187,205.439545 288.164612,206.135956 288.281006,206.832367 
z"/>
<path fill="#F0E7D5" opacity="1.000000" stroke="none" 
	d="
M288.476501,206.842194 
	C288.164612,206.135956 288.048187,205.439545 287.900330,204.390015 
	C288.254486,204.750183 288.640076,205.463470 289.043945,206.498779 
	C289.062195,206.820816 288.671997,206.852005 288.476501,206.842194 
z"/>
<path fill="#F0E7D5" opacity="1.000000" stroke="none" 
	d="
M226.059845,211.217896 
	C226.105988,211.658096 225.839447,212.200073 225.311447,212.898712 
	C225.282394,212.476822 225.514786,211.898254 226.059845,211.217896 
z"/>
<path fill="#B88B4E" opacity="1.000000" stroke="none" 
	d="
M302.578491,251.073990 
	C302.702850,252.765503 302.827209,254.457016 303.000305,256.572266 
	C302.325409,262.141846 301.601807,267.287720 300.290039,272.699615 
	C297.261261,272.308105 294.752472,270.915405 292.393158,271.134247 
	C285.944244,271.732391 279.558289,273.009674 273.069702,273.613678 
	C272.246490,269.821655 271.500977,266.433899 271.083984,262.901001 
	C273.930481,257.290100 277.925354,254.352127 284.218964,254.658676 
	C285.916840,254.741364 287.635162,253.379135 289.412292,253.061493 
	C293.779907,252.280838 298.187164,251.722046 302.578491,251.073990 
z"/>
<path fill="#AB7D42" opacity="1.000000" stroke="none" 
	d="
M273.147400,274.017975 
	C279.558289,273.009674 285.944244,271.732391 292.393158,271.134247 
	C294.752472,270.915405 297.261261,272.308105 300.131714,273.030945 
	C300.104095,275.847382 299.646606,278.598511 299.107635,281.710327 
	C298.209290,282.944336 297.392395,283.817688 296.342743,284.918335 
	C290.099548,279.545227 282.776123,278.435089 274.465149,278.991394 
	C273.957153,279.017761 273.699707,279.139404 273.753021,278.766327 
	C273.586700,276.934814 273.367065,275.476410 273.147400,274.017975 
z"/>
<path fill="#D9C7A7" opacity="1.000000" stroke="none" 
	d="
M306.125122,291.970520 
	C306.052490,290.993011 306.157837,290.272400 306.263214,289.551788 
	C306.778992,289.782104 307.294739,290.012421 307.810547,290.242737 
	C307.308075,290.904297 306.805603,291.565857 306.125122,291.970520 
z"/>
<path fill="#C69B5C" opacity="1.000000" stroke="none" 
	d="
M302.666290,250.734833 
	C298.187164,251.722046 293.779907,252.280838 289.412292,253.061493 
	C287.635162,253.379135 285.916840,254.741364 284.218964,254.658676 
	C277.925354,254.352127 273.930481,257.290100 270.887451,262.787933 
	C270.069153,262.475830 269.775818,262.131653 269.421326,261.403107 
	C267.214691,255.349472 265.069275,249.680222 263.236786,243.865982 
	C268.259583,240.871170 272.996582,238.065002 277.671021,235.158264 
	C281.719482,232.640793 285.434753,229.922668 290.898438,231.527847 
	C292.820251,232.092438 295.535431,229.956543 297.888306,229.053711 
	C298.221069,229.834427 298.553833,230.615128 298.994202,232.058868 
	C299.746307,234.810333 300.390808,236.898773 301.035339,238.987228 
	C301.059174,239.434631 301.083038,239.882050 301.167725,240.969116 
	C301.537262,242.393738 301.845978,243.178680 302.154694,243.963623 
	C302.190063,244.725677 302.225433,245.487747 302.375183,246.615646 
	C302.577728,248.119553 302.665924,249.257629 302.666290,250.734833 
z"/>
<path fill="#CDA363" opacity="1.000000" stroke="none" 
	d="
M297.881470,228.687622 
	C295.535431,229.956543 292.820251,232.092438 290.898438,231.527847 
	C285.434753,229.922668 281.719482,232.640793 277.671021,235.158264 
	C272.996582,238.065002 268.259583,240.871170 262.970825,243.636139 
	C260.719055,238.473816 259.046173,233.396347 257.373322,228.318878 
	C259.475616,228.408508 261.720673,229.011734 263.649139,228.475845 
	C267.155853,227.501373 270.496063,225.900879 273.865936,224.467987 
	C277.797546,222.796265 281.553009,220.430756 285.642334,219.510880 
	C288.232147,218.928314 291.291901,220.435074 294.534424,221.008698 
	C295.910126,223.448929 296.892365,225.885239 297.881470,228.687622 
z"/>
<path fill="#E8D8BE" opacity="1.000000" stroke="none" 
	d="
M301.281982,238.766296 
	C300.390808,236.898773 299.746307,234.810333 299.141174,232.341888 
	C299.758698,232.439026 300.336884,232.916183 300.960938,233.697281 
	C301.180725,235.515930 301.354645,237.030640 301.281982,238.766296 
z"/>
<path fill="#F0E7D5" opacity="1.000000" stroke="none" 
	d="
M232.125992,298.965271 
	C231.441803,297.222229 230.757599,295.479218 229.991211,293.009888 
	C229.829254,291.246429 229.749512,290.209290 230.012482,289.013550 
	C232.769119,287.023712 235.039566,287.299408 237.655960,288.762299 
	C243.744263,292.166412 249.963547,293.558105 256.245026,288.930054 
	C258.072052,287.583984 260.118683,286.479980 262.185974,285.528656 
	C265.723541,283.900696 269.356781,282.480621 272.961945,281.350220 
	C273.242371,283.132996 273.510651,284.538757 273.778961,285.944550 
	C273.681763,287.078400 273.584534,288.212280 273.037170,289.857849 
	C271.919586,291.466187 271.174225,292.523529 270.598480,293.666321 
	C268.367706,298.094177 266.190948,302.549194 263.589264,306.992126 
	C259.413635,306.325958 255.604263,304.947052 251.880157,305.147949 
	C244.378662,305.552582 238.103775,302.953918 232.125992,298.965271 
z"/>
<path fill="#EBDFCB" opacity="1.000000" stroke="none" 
	d="
M232.126801,299.326294 
	C238.103775,302.953918 244.378662,305.552582 251.880157,305.147949 
	C255.604263,304.947052 259.413635,306.325958 263.596008,306.998718 
	C264.007568,307.007263 264.020294,307.019440 264.021545,307.363464 
	C264.387512,308.485809 264.752258,309.264130 265.117004,310.042450 
	C264.603668,310.920563 264.090332,311.798676 263.086670,312.954163 
	C262.414948,313.515289 262.233551,313.799042 262.052155,314.082794 
	C262.052155,314.082794 262.033997,313.996704 261.708984,314.063110 
	C260.977692,314.865479 260.571381,315.601410 260.165100,316.337372 
	C259.497437,317.092743 258.829773,317.848083 257.770050,318.903625 
	C257.182404,319.364105 257.036163,319.561066 256.939240,319.794647 
	C256.939240,319.794647 256.880432,319.957672 256.793335,319.952423 
	C253.129471,318.336121 249.577255,316.666168 245.957565,315.158112 
	C245.122650,314.810242 244.056671,315.016968 242.909805,315.307495 
	C242.722595,315.646515 242.268753,315.437134 242.105316,314.925720 
	C241.384811,313.935516 240.827728,313.456665 240.270630,312.977814 
	C237.556290,308.547638 234.841949,304.117462 232.126801,299.326294 
z"/>
<path fill="#EBDFCB" opacity="1.000000" stroke="none" 
	d="
M264.000854,307.000671 
	C266.190948,302.549194 268.367706,298.094177 270.598480,293.666321 
	C271.174225,292.523529 271.919586,291.466187 272.874817,290.162476 
	C271.422699,295.193176 269.682831,300.430969 267.376465,305.966583 
	C265.880066,306.516052 264.950165,306.767761 264.020294,307.019440 
	C264.020294,307.019440 264.007568,307.007263 264.000854,307.000671 
z"/>
<path fill="#E2D2B7" opacity="1.000000" stroke="none" 
	d="
M264.021545,307.363464 
	C264.950165,306.767761 265.880066,306.516052 267.177368,306.233765 
	C266.919128,307.362976 266.293457,308.522797 265.392395,309.862549 
	C264.752258,309.264130 264.387512,308.485809 264.021545,307.363464 
z"/>
<path fill="#EBDFCB" opacity="1.000000" stroke="none" 
	d="
M273.895203,285.521179 
	C273.510651,284.538757 273.242371,283.132996 272.984314,281.091187 
	C273.229614,280.016602 273.464661,279.578003 273.699707,279.139404 
	C273.699707,279.139404 273.957153,279.017761 274.094055,278.978180 
	C274.157776,280.991669 274.084625,283.044739 273.895203,285.521179 
z"/>
<path fill="#E2D2B7" opacity="1.000000" stroke="none" 
	d="
M260.458954,316.220123 
	C260.571381,315.601410 260.977692,314.865479 261.735229,314.098419 
	C261.641937,314.745850 261.197357,315.424347 260.458954,316.220123 
z"/>
<path fill="#E2D2B7" opacity="1.000000" stroke="none" 
	d="
M257.146301,319.764038 
	C257.036163,319.561066 257.182404,319.364105 257.537170,319.110718 
	C257.739258,319.331604 257.624939,319.570221 257.146301,319.764038 
z"/>
<path fill="#E2D2B7" opacity="1.000000" stroke="none" 
	d="
M262.300354,313.994873 
	C262.233551,313.799042 262.414948,313.515289 262.832794,313.128784 
	C262.895721,313.319672 262.722137,313.613281 262.300354,313.994873 
z"/>
<path fill="#AB7D42" opacity="1.000000" stroke="none" 
	d="
M229.669769,289.172150 
	C229.749512,290.209290 229.829254,291.246429 229.861816,292.671326 
	C227.774780,295.566223 225.732651,296.493500 222.305847,294.889435 
	C220.101746,293.857697 217.077484,294.578064 214.195129,294.776184 
	C213.969421,295.039307 213.508698,294.981537 213.279968,294.942871 
	C207.541962,286.001251 205.016922,276.195770 204.666412,265.442474 
	C207.376144,265.741150 209.917496,266.051849 211.949280,267.236542 
	C217.973892,270.749420 225.699844,271.896362 229.143402,279.424072 
	C229.281525,280.167175 229.384277,280.659027 229.398209,281.508484 
	C229.429489,284.301422 229.549622,286.736786 229.669769,289.172150 
z"/>
<path fill="#B88B4E" opacity="1.000000" stroke="none" 
	d="
M229.108047,279.172852 
	C225.699844,271.896362 217.973892,270.749420 211.949280,267.236542 
	C209.917496,266.051849 207.376144,265.741150 204.699661,265.041656 
	C204.286285,262.690552 204.240936,260.328766 204.191116,257.527496 
	C204.437286,256.907166 204.628036,256.676727 204.864151,256.196106 
	C207.227066,251.451294 215.588547,250.134659 220.476837,254.193939 
	C224.944458,257.903931 228.728638,262.436981 232.951172,267.217529 
	C233.002243,268.412201 232.916153,268.996613 232.520203,269.734711 
	C231.564453,271.252655 230.918579,272.616943 230.228104,274.369232 
	C229.825027,276.229095 229.466537,277.700958 229.108047,279.172852 
z"/>
<path fill="#E8D8BE" opacity="1.000000" stroke="none" 
	d="
M302.365967,243.756149 
	C301.845978,243.178680 301.537262,242.393738 301.264221,241.291656 
	C301.725708,241.832581 302.151489,242.690628 302.365967,243.756149 
z"/>
<path fill="#F0E7D5" opacity="1.000000" stroke="none" 
	d="
M269.577454,341.017853 
	C267.306793,346.028473 260.876160,348.581818 255.928711,347.044281 
	C252.654419,346.026733 249.146912,345.784637 245.804611,344.951416 
	C243.857376,344.466003 242.030075,343.499451 240.071625,342.381287 
	C249.710342,341.678284 259.426270,341.343445 269.577454,341.017853 
z"/>
<path fill="#E8D8BE" opacity="1.000000" stroke="none" 
	d="
M240.316925,313.254883 
	C240.827728,313.456665 241.384811,313.935516 241.970184,314.715515 
	C241.453384,314.521820 240.908295,314.026886 240.316925,313.254883 
z"/>
<path fill="#F8F4E8" opacity="1.000000" stroke="none" 
	d="
M257.109375,228.377930 
	C259.046173,233.396347 260.719055,238.473816 262.657898,243.781128 
	C265.069275,249.680222 267.214691,255.349472 269.096466,261.603149 
	C268.832825,264.221497 268.832825,266.255432 268.832825,268.289337 
	C268.483002,268.031738 268.133148,267.774109 267.783325,267.516479 
	C265.565582,269.223145 263.347839,270.929840 260.902344,272.811798 
	C259.862610,271.964417 258.788330,271.088898 257.714050,270.213348 
	C257.776886,270.694885 257.839722,271.176422 257.902557,271.657959 
	C254.552277,272.699707 251.134293,274.717590 247.871979,274.491302 
	C244.977570,274.290527 242.397385,270.623688 239.430832,270.193054 
	C231.550613,269.049103 239.526978,264.739380 237.568268,262.618896 
	C237.347672,262.380096 237.099792,262.166534 236.864578,261.941254 
	C237.914276,259.938171 238.963974,257.935089 240.082001,255.609619 
	C243.114197,251.208908 246.078064,247.130600 249.318970,242.543961 
	C249.749969,241.699844 249.903946,241.364044 250.057892,241.028244 
	C251.388153,238.629730 252.718414,236.231232 254.062897,233.479630 
	C254.999878,231.563370 255.922638,230.000183 257.109375,228.377930 
z"/>
<path fill="#F5EDDF" opacity="1.000000" stroke="none" 
	d="
M236.609680,262.138794 
	C237.099792,262.166534 237.347672,262.380096 237.568268,262.618896 
	C239.526978,264.739380 231.550613,269.049103 239.430832,270.193054 
	C242.397385,270.623688 244.977570,274.290527 247.871979,274.491302 
	C251.134293,274.717590 254.552277,272.699707 257.902557,271.657959 
	C257.839722,271.176422 257.776886,270.694885 257.714050,270.213348 
	C258.788330,271.088898 259.862610,271.964417 260.902344,272.811798 
	C263.347839,270.929840 265.565582,269.223145 267.783325,267.516479 
	C268.133148,267.774109 268.483002,268.031738 268.832825,268.289337 
	C268.832825,266.255432 268.832825,264.221497 269.157654,261.987549 
	C269.775818,262.131653 270.069153,262.475830 270.558960,262.933105 
	C271.500977,266.433899 272.246490,269.821655 273.069702,273.613678 
	C273.367065,275.476410 273.586700,276.934814 273.753021,278.766327 
	C273.464661,279.578003 273.229614,280.016602 272.972198,280.714233 
	C269.356781,282.480621 265.723541,283.900696 262.185974,285.528656 
	C260.118683,286.479980 258.072052,287.583984 256.245026,288.930054 
	C249.963547,293.558105 243.744263,292.166412 237.655960,288.762299 
	C235.039566,287.299408 232.769119,287.023712 230.012482,289.013550 
	C229.549622,286.736786 229.429489,284.301422 229.770782,281.286133 
	C230.506683,278.472107 230.781204,276.238037 231.320587,273.781799 
	C232.000305,272.233429 232.415176,270.907227 232.830048,269.581055 
	C232.916153,268.996613 233.002243,268.412201 233.119415,267.535156 
	C234.218597,265.607117 235.286697,263.971741 236.609680,262.138794 
z"/>
<path fill="#D6AE6D" opacity="1.000000" stroke="none" 
	d="
M249.810120,241.177612 
	C249.903946,241.364044 249.749969,241.699844 249.374542,242.211792 
	C249.289520,242.034302 249.425934,241.680649 249.810120,241.177612 
z"/>
<path fill="#EBDFCB" opacity="1.000000" stroke="none" 
	d="
M231.055725,274.003967 
	C230.781204,276.238037 230.506683,278.472107 229.859619,280.928528 
	C229.384277,280.659027 229.281525,280.167175 229.143402,279.424072 
	C229.466537,277.700958 229.825027,276.229095 230.423737,274.373169 
	C230.663956,273.989136 231.055710,274.003967 231.055725,274.003967 
z"/>
<path fill="#F0E7D5" opacity="1.000000" stroke="none" 
	d="
M231.320587,273.781799 
	C231.055710,274.003967 230.663956,273.989136 230.468323,273.985199 
	C230.918579,272.616943 231.564453,271.252655 232.520172,269.734711 
	C232.415176,270.907227 232.000305,272.233429 231.320587,273.781799 
z"/>
</svg>